<?xml version="1.0" standalone="no"?>
<!DOCTYPE svg PUBLIC "-//W3C//DTD SVG 20010904//EN"
 "http://www.w3.org/TR/2001/REC-SVG-20010904/DTD/svg10.dtd">
<svg version="1.0" xmlns="http://www.w3.org/2000/svg"
 width="860.000000pt" height="860.000000pt" viewBox="0 0 860.000000 860.000000"
 preserveAspectRatio="xMidYMid meet">
<metadata>
Created by potrace 1.11, written by Peter Selinger 2001-2013
</metadata>
<g transform="translate(0.000000,860.000000) scale(0.100000,-0.100000)"
fill="#000000" stroke="none">
<path d="M3354 7875 c-242 -52 -328 -243 -245 -545 16 -58 40 -139 54 -180 14
-41 40 -135 57 -209 39 -165 142 -482 203 -618 53 -121 101 -189 165 -237 102
-75 217 -84 338 -27 134 63 203 164 231 337 18 112 11 242 -28 494 -36 238
-38 254 -45 325 -3 39 -10 90 -14 115 -5 24 -6 48 -3 53 2 4 0 13 -5 20 -5 7
-13 32 -17 57 -4 25 -27 86 -50 136 -76 157 -184 244 -351 279 -84 18 -208 18
-290 0z"/>
<path d="M6520 7272 c-55 -27 -97 -59 -160 -122 -100 -100 -157 -192 -223
-362 -60 -154 -178 -410 -294 -638 -124 -243 -143 -318 -107 -423 45 -133 234
-218 416 -188 124 20 157 45 332 241 61 69 113 127 117 130 17 14 236 300 306
400 142 202 178 298 178 470 0 182 -46 294 -174 428 -68 71 -124 95 -231 98
-81 3 -89 2 -160 -34z"/>
<path d="M1249 6056 c-59 -16 -157 -82 -186 -125 -45 -67 -21 -159 74 -283 42
-54 132 -146 199 -201 49 -41 147 -117 210 -162 38 -27 110 -79 159 -115 50
-36 166 -123 258 -193 190 -146 229 -166 308 -167 70 0 115 27 147 90 31 60
27 157 -10 223 -45 80 -283 344 -508 564 -246 241 -374 333 -507 368 -67 18
-83 18 -144 1z"/>
<path d="M4675 5503 c-137 -20 -283 -47 -347 -64 -285 -72 -678 -250 -946
-430 -545 -363 -882 -840 -998 -1412 -24 -118 -27 -155 -28 -352 -1 -242 7
-307 70 -552 97 -384 284 -753 524 -1038 151 -179 312 -320 498 -437 186 -116
372 -192 595 -242 378 -85 681 -126 929 -126 243 0 369 20 583 90 171 57 497
241 539 305 57 86 -29 136 -235 136 -70 0 -157 -7 -215 -18 -119 -21 -424 -24
-549 -4 -134 21 -274 59 -388 105 -117 48 -257 123 -264 143 -3 7 -11 13 -19
13 -8 0 -14 4 -14 9 0 5 -9 13 -20 16 -31 10 -209 190 -262 265 -232 327 -356
839 -299 1235 16 110 25 142 89 321 87 239 287 472 498 577 140 71 267 91 469
76 154 -12 269 -37 404 -88 301 -114 483 -294 522 -516 24 -138 3 -279 -77
-520 -20 -60 -38 -135 -41 -166 -5 -48 -2 -59 18 -82 46 -52 174 -53 383 -3
420 101 712 341 804 661 46 158 54 230 42 374 -30 369 -169 695 -427 1001
-256 303 -669 562 -1055 661 -193 49 -294 61 -528 64 -124 2 -238 1 -255 -2z"/>
<path d="M7770 5335 c-181 -54 -320 -120 -518 -245 -232 -147 -312 -240 -312
-359 1 -75 26 -126 90 -184 39 -35 70 -52 121 -68 79 -24 117 -20 339 32 244
58 401 128 567 252 150 113 203 200 191 311 -22 188 -269 323 -478 261z"/>
<path d="M836 3930 c-43 -11 -106 -35 -139 -53 -79 -41 -170 -126 -197 -183
-60 -124 5 -283 148 -357 83 -43 141 -55 307 -61 72 -3 272 -10 446 -17 364
-14 407 -9 549 62 115 58 170 130 170 222 0 80 -49 130 -190 195 -104 48 -134
59 -185 71 -22 5 -85 21 -140 36 -361 97 -612 125 -769 85z"/>
<path d="M1990 1981 c-94 -26 -267 -87 -345 -121 -22 -10 -60 -26 -84 -36 -41
-17 -110 -78 -173 -153 -59 -70 -121 -229 -133 -342 -13 -125 37 -248 120
-297 58 -33 164 -27 256 15 141 65 375 250 501 398 124 144 194 328 169 440
-28 125 -115 151 -311 96z"/>
</g>
</svg>
